<?xml version="1.0" encoding="UTF-8" standalone="no"?>
<!DOCTYPE svg PUBLIC "-//W3C//DTD SVG 1.1//EN" "http://www.w3.org/Graphics/SVG/1.1/DTD/svg11.dtd">
<svg width="100%" height="100%" viewBox="0 0 800 863" version="1.1" xmlns="http://www.w3.org/2000/svg" xmlns:xlink="http://www.w3.org/1999/xlink" xml:space="preserve" xmlns:serif="http://www.serif.com/" style="fill-rule:evenodd;clip-rule:evenodd;stroke-linejoin:round;stroke-miterlimit:2;">
    <g transform="matrix(1,0,0,1,-5667,-1030.176471)">
        <g transform="matrix(0.705556,0,0,0.47037,1638.788889,976.931373)">
            <g transform="matrix(3.246119,0,0,8.851164,-28642.543071,-53251.713912)">
                <path d="M10605.108,6091.529L10605.108,6104.006L10627.79,6104.006L10627.79,6091.529L10605.108,6091.529L10605.108,6066.573L10627.79,6066.573L10627.79,6079.051L10695.835,6079.051L10695.835,6066.573L10718.516,6066.573L10718.516,6091.529L10695.835,6091.529L10695.835,6104.006L10718.516,6104.006L10718.516,6091.529L10741.198,6091.529L10741.198,6116.484L10582.427,6116.484L10582.427,6091.529L10605.108,6091.529ZM10582.427,6054.096L10605.108,6054.096L10605.108,6066.573L10582.427,6066.573L10582.427,6054.096ZM10605.108,6041.618L10627.79,6041.618L10627.79,6054.096L10605.108,6054.096L10605.108,6041.618ZM10627.79,6054.096L10695.835,6054.096L10695.835,6066.573L10627.79,6066.573L10627.79,6054.096ZM10627.79,6029.141L10695.835,6029.141L10695.835,6041.618L10627.79,6041.618L10627.79,6029.141ZM10673.153,6104.006L10673.153,6091.529L10650.472,6091.529L10650.472,6104.006L10673.153,6104.006ZM10695.835,6041.618L10718.516,6041.618L10718.516,6054.096L10695.835,6054.096L10695.835,6041.618ZM10718.516,6054.096L10741.198,6054.096L10741.198,6066.573L10718.516,6066.573L10718.516,6054.096Z" style="fill:rgb(255,230,230);fill-rule:nonzero;"/>
                <path d="M10772.952,6091.529L10772.952,6041.618L10840.997,6041.618L10840.997,6029.141L10863.679,6029.141L10863.679,6041.618L10931.723,6041.618L10931.723,6091.529L10863.679,6091.529L10863.679,6116.484L10840.997,6116.484L10840.997,6091.529L10772.952,6091.529ZM10840.997,6079.051L10840.997,6054.096L10795.634,6054.096L10795.634,6079.051L10840.997,6079.051ZM10909.042,6079.051L10909.042,6054.096L10863.679,6054.096L10863.679,6079.051L10909.042,6079.051Z" style="fill:rgb(255,230,230);fill-rule:nonzero;"/>
                <path d="M10605.108,6223.79L10605.108,6211.313L10582.427,6211.313L10582.427,6198.835L10605.108,6198.835L10605.108,6173.88L10582.427,6173.88L10582.427,6161.403L10605.108,6161.403L10605.108,6148.925L10627.79,6148.925L10627.79,6161.403L10650.472,6161.403L10650.472,6148.925L10741.198,6148.925L10741.198,6186.358L10718.516,6186.358L10718.516,6198.835L10741.198,6198.835L10741.198,6211.313L10718.516,6211.313L10718.516,6223.79L10741.198,6223.79L10741.198,6236.268L10650.472,6236.268L10650.472,6223.79L10695.835,6223.79L10695.835,6211.313L10673.153,6211.313L10673.153,6198.835L10695.835,6198.835L10695.835,6186.358L10650.472,6186.358L10650.472,6173.88L10627.79,6173.88L10627.79,6186.358L10650.472,6186.358L10650.472,6198.835L10627.79,6198.835L10627.79,6236.268L10582.427,6236.268L10582.427,6223.79L10605.108,6223.79ZM10718.516,6173.88L10718.516,6161.403L10673.153,6161.403L10673.153,6173.88L10718.516,6173.88Z" style="fill:rgb(255,230,230);fill-rule:nonzero;"/>
                <path d="M10863.679,6223.79L10863.679,6211.313L10886.36,6211.313L10886.36,6223.79L10863.679,6223.79ZM10772.952,6211.313L10795.634,6211.313L10795.634,6198.835L10772.952,6198.835L10772.952,6161.403L10795.634,6161.403L10795.634,6148.925L10818.315,6148.925L10818.315,6173.88L10840.997,6173.88L10840.997,6186.358L10818.315,6186.358L10818.315,6198.835L10840.997,6198.835L10840.997,6211.313L10818.315,6211.313L10818.315,6236.268L10795.634,6236.268L10795.634,6223.79L10772.952,6223.79L10772.952,6211.313ZM10840.997,6223.79L10863.679,6223.79L10863.679,6236.268L10840.997,6236.268L10840.997,6223.79ZM10840.997,6186.358L10863.679,6186.358L10863.679,6198.835L10840.997,6198.835L10840.997,6186.358ZM10840.997,6148.925L10863.679,6148.925L10863.679,6161.403L10931.723,6161.403L10931.723,6236.268L10886.36,6236.268L10886.36,6223.79L10909.042,6223.79L10909.042,6211.313L10886.36,6211.313L10886.36,6198.835L10909.042,6198.835L10909.042,6173.88L10886.36,6173.88L10886.36,6186.358L10863.679,6186.358L10863.679,6173.88L10840.997,6173.88L10840.997,6148.925Z" style="fill:rgb(255,230,230);fill-rule:nonzero;"/>
            </g>
        </g>
    </g>
</svg>
