<?xml version="1.0" encoding="UTF-8" standalone="no"?>
<!DOCTYPE svg PUBLIC "-//W3C//DTD SVG 1.1//EN" "http://www.w3.org/Graphics/SVG/1.1/DTD/svg11.dtd">
<svg width="100%" height="100%" viewBox="0 0 988 949" version="1.1" xmlns="http://www.w3.org/2000/svg" xmlns:xlink="http://www.w3.org/1999/xlink" xml:space="preserve" xmlns:serif="http://www.serif.com/" style="fill-rule:evenodd;clip-rule:evenodd;stroke-linejoin:round;stroke-miterlimit:2;">
    <g transform="matrix(1,0,0,1,-5572.661765,-28.348039)">
        <g transform="matrix(0.705556,0,0,0.47037,1638.788889,0)">
            <g transform="matrix(3.51693,0,0,4.830563,-13898.664856,-3381.393786)">
                <path d="M5561.924,716.612C5565.473,716.612 5568.794,717.609 5571.887,719.602C5574.98,721.596 5578.023,725.029 5581.014,729.902C5584.006,734.775 5587.124,741.53 5590.369,750.168C5593.614,758.807 5597.163,769.771 5601.017,783.06L5601.625,783.06C5601.22,779.627 5600.839,776 5600.485,772.179C5600.13,768.359 5599.8,764.538 5599.496,760.717C5599.192,756.896 5598.963,753.297 5598.811,749.919C5598.659,746.541 5598.583,743.634 5598.583,741.198C5598.583,732.227 5599.851,725.693 5602.386,721.596C5604.921,717.498 5608.521,715.449 5613.186,715.449C5616.431,715.449 5619.042,716.667 5621.02,719.104C5622.997,721.54 5624.645,725.029 5625.963,729.569C5627.687,734.885 5629.082,742.305 5630.147,751.83C5631.211,761.354 5631.744,771.93 5631.744,783.559C5631.744,800.614 5630.172,813.128 5627.028,821.102C5623.885,829.076 5618.206,833.062 5609.992,833.062C5605.935,833.062 5602.183,832.038 5598.735,829.989C5595.287,827.94 5592.042,824.535 5589,819.773C5585.958,815.011 5582.966,808.67 5580.025,800.752C5577.085,792.834 5574.042,782.949 5570.899,771.1L5570.29,771.1C5570.696,773.868 5571.025,777.08 5571.279,780.734C5571.532,784.389 5571.761,788.071 5571.963,791.782C5572.166,795.492 5572.268,798.952 5572.268,802.164C5572.268,813.128 5570.924,820.936 5568.237,825.587C5565.549,830.238 5561.366,832.564 5555.687,832.564C5549.603,832.564 5545.268,830.155 5542.682,825.338C5540.096,820.52 5538.803,813.073 5538.803,802.995C5538.803,798.233 5538.93,792.834 5539.183,786.798C5539.437,780.762 5539.817,774.533 5540.324,768.109C5540.831,761.686 5541.389,755.54 5541.997,749.67C5543.214,738.817 5545.293,730.594 5548.234,725.001C5551.175,719.408 5555.738,716.612 5561.924,716.612ZM5880.328,772.268C5880.533,776.341 5881.713,779.28 5883.871,781.084C5886.254,783.077 5889.575,784.074 5893.834,784.074C5898.397,784.074 5902.2,783.465 5905.242,782.247C5908.285,781.029 5910.997,779.755 5913.38,778.426C5915.764,777.097 5918.223,776.433 5920.758,776.433C5922.583,776.433 5924.459,776.931 5926.386,777.928C5928.313,778.924 5929.935,780.475 5931.254,782.579C5932.572,784.683 5933.231,787.507 5933.231,791.051C5933.231,795.703 5931.761,799.856 5928.82,803.51C5925.879,807.165 5921.569,810.072 5915.89,812.232C5910.211,814.391 5903.164,815.471 5894.747,815.471C5883.997,815.471 5875.403,813.644 5868.964,809.989C5862.524,806.334 5857.885,801.074 5855.045,794.208C5852.206,787.341 5850.786,779.146 5850.786,769.622C5850.786,757.55 5852.814,747.279 5856.871,738.806C5860.927,730.334 5866.454,723.828 5873.451,719.287C5880.448,714.747 5888.409,712.476 5897.333,712.476C5907.98,712.476 5915.764,715.107 5920.682,720.367C5925.6,725.627 5928.059,732.521 5928.059,741.049C5928.059,747.805 5926.538,753.674 5923.496,758.658C5920.454,763.641 5916.271,767.462 5910.947,770.12C5905.623,772.778 5899.462,774.107 5892.465,774.107C5889.727,774.107 5887.014,773.83 5884.327,773.276C5882.917,772.986 5881.584,772.65 5880.328,772.268ZM5888.206,757.495C5891.755,757.495 5894.873,756.028 5897.561,753.093C5900.248,750.158 5901.592,746.531 5901.592,742.212C5901.592,739.775 5900.983,737.727 5899.766,736.065C5898.549,734.404 5896.876,733.574 5894.747,733.574C5892.313,733.574 5890.056,734.321 5887.978,735.816C5885.899,737.311 5884.226,739.249 5882.958,741.63C5881.69,744.011 5881.056,746.642 5881.056,749.521C5881.056,752.068 5881.69,754.034 5882.958,755.418C5884.226,756.803 5885.975,757.495 5888.206,757.495ZM5566.824,927.601C5567.028,931.674 5568.209,934.613 5570.366,936.417C5572.749,938.411 5576.07,939.408 5580.33,939.408C5584.893,939.408 5588.696,938.798 5591.738,937.58C5594.78,936.362 5597.493,935.088 5599.876,933.759C5602.259,932.43 5604.718,931.766 5607.254,931.766C5609.079,931.766 5610.955,932.264 5612.882,933.261C5614.808,934.258 5616.431,935.808 5617.749,937.912C5619.068,940.017 5619.727,942.841 5619.727,946.385C5619.727,951.036 5618.256,955.189 5615.316,958.844C5612.375,962.498 5608.065,965.405 5602.386,967.565C5596.707,969.724 5589.659,970.804 5581.242,970.804C5570.493,970.804 5561.899,968.977 5555.459,965.322C5549.02,961.668 5544.38,956.407 5541.541,949.541C5538.701,942.675 5537.282,934.479 5537.282,924.955C5537.282,912.884 5539.31,902.612 5543.366,894.14C5547.423,885.668 5552.949,879.161 5559.946,874.621C5566.944,870.08 5574.904,867.81 5583.828,867.81C5594.476,867.81 5602.259,870.44 5607.177,875.7C5612.096,880.961 5614.555,887.855 5614.555,896.382C5614.555,903.138 5613.034,909.007 5609.992,913.991C5606.949,918.975 5602.766,922.795 5597.442,925.453C5592.118,928.111 5585.958,929.44 5578.961,929.44C5576.223,929.44 5573.51,929.163 5570.823,928.61C5569.413,928.319 5568.08,927.983 5566.824,927.601ZM5574.701,912.828C5578.251,912.828 5581.369,911.361 5584.056,908.426C5586.744,905.491 5588.087,901.864 5588.087,897.545C5588.087,895.109 5587.479,893.06 5586.262,891.399C5585.045,889.738 5583.372,888.907 5581.242,888.907C5578.808,888.907 5576.552,889.654 5574.473,891.15C5572.394,892.645 5570.721,894.583 5569.454,896.964C5568.186,899.345 5567.552,901.975 5567.552,904.854C5567.552,907.402 5568.186,909.367 5569.454,910.752C5570.721,912.136 5572.47,912.828 5574.701,912.828ZM5713.156,927.601C5713.361,931.674 5714.542,934.613 5716.699,936.417C5719.082,938.411 5722.403,939.408 5726.662,939.408C5731.225,939.408 5735.028,938.798 5738.071,937.58C5741.113,936.362 5743.825,935.088 5746.209,933.759C5748.592,932.43 5751.051,931.766 5753.586,931.766C5755.411,931.766 5757.287,932.264 5759.214,933.261C5761.141,934.258 5762.763,935.808 5764.082,937.912C5765.4,940.017 5766.059,942.841 5766.059,946.385C5766.059,951.036 5764.589,955.189 5761.648,958.844C5758.707,962.498 5754.397,965.405 5748.718,967.565C5743.04,969.724 5735.992,970.804 5727.575,970.804C5716.825,970.804 5708.231,968.977 5701.792,965.322C5695.352,961.668 5690.713,956.407 5687.873,949.541C5685.034,942.675 5683.614,934.479 5683.614,924.955C5683.614,912.884 5685.642,902.612 5689.699,894.14C5693.755,885.668 5699.282,879.161 5706.279,874.621C5713.276,870.08 5721.237,867.81 5730.161,867.81C5740.809,867.81 5748.592,870.44 5753.51,875.7C5758.428,880.961 5760.887,887.855 5760.887,896.382C5760.887,903.138 5759.366,909.007 5756.324,913.991C5753.282,918.975 5749.099,922.795 5743.775,925.453C5738.451,928.111 5732.29,929.44 5725.293,929.44C5722.555,929.44 5719.842,929.163 5717.155,928.61C5715.745,928.319 5714.412,927.983 5713.156,927.601ZM5721.034,912.828C5724.583,912.828 5727.701,911.361 5730.389,908.426C5733.076,905.491 5734.42,901.864 5734.42,897.545C5734.42,895.109 5733.811,893.06 5732.594,891.399C5731.378,889.738 5729.704,888.907 5727.575,888.907C5725.141,888.907 5722.885,889.654 5720.806,891.15C5718.727,892.645 5717.054,894.583 5715.786,896.964C5714.518,899.345 5713.885,901.975 5713.885,904.854C5713.885,907.402 5714.518,909.367 5715.786,910.752C5717.054,912.136 5718.803,912.828 5721.034,912.828ZM5566.824,1082.934C5567.028,1087.007 5568.209,1089.946 5570.366,1091.751C5572.749,1093.744 5576.07,1094.741 5580.33,1094.741C5584.893,1094.741 5588.696,1094.132 5591.738,1092.914C5594.78,1091.695 5597.493,1090.422 5599.876,1089.093C5602.259,1087.764 5604.718,1087.099 5607.254,1087.099C5609.079,1087.099 5610.955,1087.598 5612.882,1088.594C5614.808,1089.591 5616.431,1091.142 5617.749,1093.246C5619.068,1095.35 5619.727,1098.174 5619.727,1101.718C5619.727,1106.369 5618.256,1110.522 5615.316,1114.177C5612.375,1117.832 5608.065,1120.739 5602.386,1122.898C5596.707,1125.058 5589.659,1126.138 5581.242,1126.138C5570.493,1126.138 5561.899,1124.31 5555.459,1120.656C5549.02,1117.001 5544.38,1111.74 5541.541,1104.874C5538.701,1098.008 5537.282,1089.813 5537.282,1080.288C5537.282,1068.217 5539.31,1057.945 5543.366,1049.473C5547.423,1041.001 5552.949,1034.495 5559.946,1029.954C5566.944,1025.413 5574.904,1023.143 5583.828,1023.143C5594.476,1023.143 5602.259,1025.773 5607.177,1031.034C5612.096,1036.294 5614.555,1043.188 5614.555,1051.716C5614.555,1058.471 5613.034,1064.341 5609.992,1069.324C5606.949,1074.308 5602.766,1078.129 5597.442,1080.787C5592.118,1083.445 5585.958,1084.774 5578.961,1084.774C5576.223,1084.774 5573.51,1084.497 5570.823,1083.943C5569.413,1083.653 5568.08,1083.316 5566.824,1082.934ZM5574.701,1068.162C5578.251,1068.162 5581.369,1066.694 5584.056,1063.759C5586.744,1060.825 5588.087,1057.198 5588.087,1052.879C5588.087,1050.442 5587.479,1048.393 5586.262,1046.732C5585.045,1045.071 5583.372,1044.24 5581.242,1044.24C5578.808,1044.24 5576.552,1044.988 5574.473,1046.483C5572.394,1047.978 5570.721,1049.916 5569.454,1052.297C5568.186,1054.678 5567.552,1057.308 5567.552,1060.188C5567.552,1062.735 5568.186,1064.701 5569.454,1066.085C5570.721,1067.469 5572.47,1068.162 5574.701,1068.162ZM5703.247,1113.501C5698.324,1122.479 5690.31,1126.968 5679.203,1126.968C5673.118,1126.968 5668.099,1125.612 5664.144,1122.898C5660.189,1120.185 5657.248,1116.613 5655.321,1112.183C5653.394,1107.754 5652.431,1102.825 5652.431,1097.399C5652.431,1088.207 5655.068,1080.925 5660.341,1075.554C5665.614,1070.183 5672.611,1067.497 5681.332,1067.497C5686.606,1067.497 5691.245,1068.549 5695.251,1070.653C5697.084,1071.616 5698.784,1072.753 5700.351,1074.063C5699.95,1067.594 5698.732,1062.802 5696.696,1059.689C5694.161,1055.813 5690.409,1053.875 5685.44,1053.875C5683.614,1053.875 5681.662,1054.207 5679.583,1054.872C5677.504,1055.536 5675.375,1056.173 5673.194,1056.782C5671.014,1057.391 5668.809,1057.696 5666.578,1057.696C5662.825,1057.696 5659.91,1056.505 5657.831,1054.124C5655.752,1051.743 5654.713,1048.67 5654.713,1044.905C5654.713,1040.032 5656.335,1035.796 5659.58,1032.197C5662.825,1028.597 5667.135,1025.801 5672.51,1023.807C5677.885,1021.814 5683.716,1020.817 5690.003,1020.817C5698.623,1020.817 5706.051,1022.866 5712.287,1026.964C5718.524,1031.061 5723.062,1037.263 5725.901,1045.569C5728.132,1051.66 5729.73,1058.527 5730.693,1066.168C5731.656,1073.81 5732.138,1081.95 5732.138,1090.588C5732.138,1100.001 5731.58,1107.311 5730.465,1112.516C5729.349,1117.721 5727.6,1121.348 5725.217,1123.397C5722.834,1125.445 5719.766,1126.47 5716.014,1126.47C5711.654,1126.47 5708.409,1125.002 5706.279,1122.068C5704.809,1120.043 5703.799,1117.187 5703.247,1113.501ZM5691.068,1103.379C5692.589,1103.379 5694.085,1103.019 5695.555,1102.299C5697.025,1101.579 5698.268,1100.444 5699.282,1098.894C5700.296,1097.343 5700.803,1095.461 5700.803,1093.246C5700.803,1091.142 5700.423,1089.425 5699.662,1088.096C5698.901,1086.767 5697.862,1085.77 5696.544,1085.106C5695.225,1084.441 5693.856,1084.109 5692.437,1084.109C5689.699,1084.109 5687.518,1085.078 5685.896,1087.016C5684.273,1088.954 5683.462,1091.418 5683.462,1094.409C5683.462,1096.956 5684.147,1099.088 5685.516,1100.804C5686.885,1102.521 5688.735,1103.379 5691.068,1103.379ZM5789.23,1110.726C5787.091,1114.785 5784.438,1118.205 5781.271,1120.988C5776.606,1125.085 5771.079,1127.134 5764.69,1127.134C5756.172,1127.134 5749.504,1123.064 5744.687,1114.924C5739.871,1106.785 5737.462,1094.353 5737.462,1077.63C5737.462,1061.018 5739.744,1048.864 5744.307,1041.167C5748.871,1033.47 5755.411,1029.622 5763.93,1029.622C5769.102,1029.622 5773.665,1030.951 5777.62,1033.609C5780.298,1035.409 5782.791,1037.717 5785.097,1040.533C5784.751,1038.062 5784.413,1035.505 5784.085,1032.861C5783.527,1028.376 5783.096,1024.14 5782.792,1020.153C5782.487,1016.166 5782.335,1013.01 5782.335,1010.684C5782.335,1005.368 5783.349,1001.243 5785.378,998.308C5787.406,995.373 5790.6,993.906 5794.961,993.906C5799.828,993.906 5803.809,995.816 5806.902,999.637C5809.994,1003.458 5812.352,1009.244 5813.975,1016.997C5814.989,1021.648 5815.876,1027.545 5816.637,1034.688C5817.397,1041.831 5818.006,1049.307 5818.462,1057.115C5818.918,1064.922 5819.147,1072.259 5819.147,1079.126C5819.147,1091.418 5818.361,1100.998 5816.789,1107.864C5815.217,1114.731 5813.011,1119.548 5810.172,1122.317C5807.333,1125.085 5804.087,1126.47 5800.437,1126.47C5796.178,1126.47 5793.237,1124.753 5791.614,1121.32C5790.461,1118.88 5789.666,1115.348 5789.23,1110.726ZM5778.837,1097.565C5780.459,1097.565 5781.955,1096.845 5783.324,1095.405C5784.693,1093.966 5785.783,1091.751 5786.594,1088.761C5787.406,1085.77 5787.811,1081.95 5787.811,1077.298C5787.811,1071.318 5787.102,1066.445 5785.682,1062.68C5784.262,1058.914 5781.879,1057.032 5778.533,1057.032C5775.794,1057.032 5773.589,1058.693 5771.916,1062.015C5770.242,1065.338 5769.406,1070.377 5769.406,1077.132C5769.406,1083.112 5770.268,1088.013 5771.992,1091.834C5773.716,1095.654 5775.997,1097.565 5778.837,1097.565ZM5824.014,1113.014C5824.014,1109.359 5824.851,1106.397 5826.524,1104.127C5828.197,1101.856 5830.378,1100.167 5833.065,1099.06C5835.752,1097.952 5838.566,1097.399 5841.507,1097.399C5846.578,1097.399 5850.456,1098.672 5853.144,1101.22C5855.831,1103.767 5857.175,1107.2 5857.175,1111.519C5857.175,1116.835 5855.502,1120.683 5852.155,1123.064C5848.809,1125.445 5844.752,1126.636 5839.986,1126.636C5834.814,1126.636 5830.859,1125.39 5828.121,1122.898C5825.383,1120.406 5824.014,1117.112 5824.014,1113.014ZM5842.268,1001.381C5847.947,1001.381 5851.978,1003.624 5854.361,1008.109C5856.744,1012.594 5857.935,1018.99 5857.935,1027.296C5857.935,1035.048 5857.504,1042.801 5856.642,1050.553C5855.78,1058.305 5854.64,1064.95 5853.22,1070.487C5851.699,1076.578 5849.696,1080.925 5847.211,1083.528C5844.727,1086.13 5841.862,1087.432 5838.617,1087.432C5833.648,1087.432 5830.175,1083.5 5828.197,1075.637C5826.22,1067.774 5825.231,1054.983 5825.231,1037.263C5825.231,1028.403 5825.713,1021.371 5826.676,1016.166C5827.64,1010.961 5829.364,1007.195 5831.848,1004.87C5834.333,1002.544 5837.806,1001.381 5842.268,1001.381ZM5895.507,1116.336C5895.507,1120.434 5894.138,1123.729 5891.4,1126.221C5888.662,1128.712 5884.707,1129.958 5879.535,1129.958C5874.769,1129.958 5870.713,1128.768 5867.366,1126.387C5864.02,1124.006 5862.347,1120.157 5862.347,1114.841C5862.347,1110.522 5863.716,1107.089 5866.454,1104.542C5869.192,1101.995 5873.045,1100.721 5878.014,1100.721C5880.955,1100.721 5883.769,1101.275 5886.456,1102.382C5889.144,1103.49 5891.324,1105.179 5892.997,1107.449C5894.671,1109.719 5895.507,1112.682 5895.507,1116.336ZM5877.254,1006.365C5881.614,1006.365 5884.961,1007.528 5887.293,1009.853C5889.626,1012.179 5891.248,1015.944 5892.161,1021.15C5893.073,1026.355 5893.53,1033.387 5893.53,1042.247C5893.53,1059.966 5892.364,1072.758 5890.031,1080.621C5887.699,1088.484 5883.947,1092.415 5878.775,1092.415C5876.037,1092.415 5873.578,1091.114 5871.397,1088.511C5869.217,1085.909 5867.569,1081.562 5866.454,1075.471C5865.44,1070.044 5864.502,1063.427 5863.64,1055.619C5862.778,1047.812 5862.347,1040.032 5862.347,1032.28C5862.347,1023.974 5863.487,1017.578 5865.769,1013.093C5868.051,1008.607 5871.879,1006.365 5877.254,1006.365ZM5899.918,1109.692C5899.918,1105.705 5900.755,1102.438 5902.428,1099.891C5904.102,1097.343 5906.282,1095.461 5908.969,1094.242C5911.657,1093.024 5914.471,1092.415 5917.411,1092.415C5922.482,1092.415 5926.361,1093.827 5929.048,1096.651C5931.735,1099.475 5933.079,1103.324 5933.079,1108.197C5933.079,1114.066 5931.406,1118.33 5928.059,1120.988C5924.713,1123.646 5920.657,1124.975 5915.89,1124.975C5910.718,1124.975 5906.764,1123.563 5904.026,1120.739C5901.287,1117.915 5899.918,1114.232 5899.918,1109.692ZM5918.172,998.059C5924.459,998.059 5928.896,999.858 5931.482,1003.458C5934.068,1007.057 5935.361,1012.234 5935.361,1018.99C5935.361,1027.739 5934.752,1036.405 5933.535,1044.988C5932.318,1053.571 5930.848,1060.963 5929.124,1067.165C5927.603,1073.256 5925.6,1077.603 5923.116,1080.205C5920.631,1082.808 5917.766,1084.109 5914.521,1084.109C5909.045,1084.109 5905.192,1080.178 5902.961,1072.315C5900.73,1064.452 5899.614,1051.66 5899.614,1033.941C5899.614,1020.762 5901.059,1011.487 5903.949,1006.116C5906.84,1000.744 5911.58,998.059 5918.172,998.059Z" style="fill:rgb(255,230,230);"/>
            </g>
        </g>
    </g>
</svg>
