<?xml version="1.0" encoding="UTF-8" standalone="no"?>
<!DOCTYPE svg PUBLIC "-//W3C//DTD SVG 1.1//EN" "http://www.w3.org/Graphics/SVG/1.1/DTD/svg11.dtd">
<svg width="100%" height="100%" viewBox="0 0 1800 1800" version="1.1" xmlns="http://www.w3.org/2000/svg" xmlns:xlink="http://www.w3.org/1999/xlink" xml:space="preserve" xmlns:serif="http://www.serif.com/" style="fill-rule:evenodd;clip-rule:evenodd;stroke-linejoin:round;stroke-miterlimit:2;">
    <g transform="matrix(1,0,0,1,-7290,0)">
        <g id="_012" serif:id="012" transform="matrix(0.5625,0,0,1,5461.875,0)">
            <rect x="3250" y="0" width="3200" height="1800" style="fill:none;"/>
            <clipPath id="_clip1">
                <rect x="3250" y="0" width="3200" height="1800"/>
            </clipPath>
            <g clip-path="url(#_clip1)">
                <g id="p" transform="matrix(8.080808,0,0,4.545455,3250,0)">
                    <path d="M0,84L0,0L84,0L84,84L0,84ZM72,12L12,12L12,72L72,72L72,12ZM24,60L24,24L60,24L60,60L24,60ZM312,84L312,0L396,0L396,84L312,84ZM384,12L324,12L324,72L384,72L384,12ZM336,60L336,24L372,24L372,60L336,60ZM0,396L0,312L84,312L84,396L0,396ZM72,324L12,324L12,384L72,384L72,324ZM24,372L24,336L60,336L60,372L24,372ZM108,384L156,384L156,396L108,396L108,384ZM108,348L96,348L96,336L108,336L108,348ZM360,348L372,348L372,336L396,336L396,372L384,372L384,360L360,360L360,348ZM12,288L12,300L0,300L0,288L12,288ZM108,360L108,384L96,384L96,360L108,360ZM0,156L0,120L12,120L12,144L36,144L36,156L24,156L24,180L36,180L36,204L24,204L24,264L12,264L12,252L0,252L0,204L12,204L12,180L0,180L0,168L12,168L12,156L0,156ZM36,144L36,120L84,120L84,132L60,132L60,144L36,144ZM84,120L84,108L72,108L72,96L96,96L96,120L84,120ZM96,120L108,120L108,132L96,132L96,120ZM108,132L120,132L120,108L144,108L144,120L132,120L132,144L120,144L120,156L108,156L108,132ZM132,144L156,144L156,204L132,204L132,192L144,192L144,180L132,180L132,192L120,192L120,216L108,216L108,180L120,180L120,156L132,156L132,144ZM156,144L156,108L180,108L180,120L192,120L192,132L168,132L168,144L156,144ZM192,120L192,96L144,96L144,72L132,72L132,84L120,84L120,60L156,60L156,84L168,84L168,72L180,72L180,84L192,84L192,72L204,72L204,84L216,84L216,120L192,120ZM180,72L180,60L192,60L192,72L180,72ZM180,60L168,60L168,24L192,24L192,36L204,36L204,24L216,24L216,12L228,12L228,0L240,0L240,36L228,36L228,60L240,60L240,36L252,36L252,24L264,24L264,12L252,12L252,0L288,0L288,12L300,12L300,24L276,24L276,36L300,36L300,84L288,84L288,72L276,72L276,60L288,60L288,48L276,48L276,60L264,60L264,48L252,48L252,60L264,60L264,72L252,72L252,84L240,84L240,72L228,72L228,84L216,84L216,48L180,48L180,60ZM192,24L192,0L216,0L216,12L204,12L204,24L192,24ZM288,84L288,96L264,96L264,120L252,120L252,108L240,108L240,96L252,96L252,84L264,84L264,72L276,72L276,84L288,84ZM288,96L300,96L300,108L312,108L312,96L324,96L324,108L336,108L336,132L312,132L312,120L288,120L288,96ZM336,108L336,96L396,96L396,180L384,180L384,192L372,192L372,180L336,180L336,168L384,168L384,132L360,132L360,120L372,120L372,108L336,108ZM336,180L336,192L324,192L324,204L336,204L336,216L312,216L312,228L300,228L300,216L288,216L288,204L252,204L252,216L264,216L264,228L252,228L252,240L240,240L240,264L216,264L216,252L228,252L228,240L204,240L204,228L180,228L180,216L204,216L204,204L192,204L192,192L180,192L180,180L168,180L168,168L180,168L180,156L192,156L192,168L204,168L204,156L216,156L216,144L192,144L192,132L216,132L216,120L228,120L228,156L240,156L240,120L252,120L252,132L264,132L264,120L276,120L276,132L312,132L312,144L300,144L300,156L312,156L312,144L336,144L336,156L324,156L324,168L312,168L312,180L300,180L300,192L312,192L312,180L336,180ZM312,228L348,228L348,240L336,240L336,252L312,252L312,228ZM348,240L360,240L360,252L348,252L348,240ZM360,252L384,252L384,240L372,240L372,228L360,228L360,216L372,216L372,204L396,204L396,276L384,276L384,288L372,288L372,276L360,276L360,252ZM384,288L396,288L396,324L360,324L360,312L384,312L384,288ZM360,312L348,312L348,336L360,336L360,348L348,348L348,396L336,396L336,348L288,348L288,324L276,324L276,360L300,360L300,372L288,372L288,396L276,396L276,384L264,384L264,396L216,396L216,372L204,372L204,360L192,360L192,348L180,348L180,360L192,360L192,372L168,372L168,348L156,348L156,372L132,372L132,360L144,360L144,348L132,348L132,336L120,336L120,324L132,324L132,312L144,312L144,336L156,336L156,324L168,324L168,336L192,336L192,324L204,324L204,336L216,336L216,360L228,360L228,348L240,348L240,336L228,336L228,324L264,324L264,312L240,312L240,288L252,288L252,276L288,276L288,288L264,288L264,300L288,300L288,288L300,288L300,252L312,252L312,276L324,276L324,264L348,264L348,276L336,276L336,288L348,288L348,300L360,300L360,312ZM132,360L108,360L108,348L132,348L132,360ZM120,324L96,324L96,300L120,300L120,324ZM96,300L72,300L72,288L84,288L84,276L60,276L60,252L48,252L48,228L36,228L36,204L48,204L48,168L60,168L60,180L72,180L72,192L60,192L60,228L72,228L72,240L84,240L84,228L132,228L132,240L144,240L144,264L156,264L156,288L180,288L180,276L168,276L168,252L180,252L180,240L192,240L192,276L240,276L240,288L228,288L228,300L216,300L216,312L228,312L228,324L204,324L204,312L192,312L192,300L180,300L180,324L168,324L168,300L144,300L144,288L132,288L132,276L120,276L120,264L132,264L132,252L108,252L108,240L96,240L96,252L72,252L72,264L108,264L108,276L96,276L96,300ZM48,252L48,264L36,264L36,252L48,252ZM36,264L36,276L24,276L24,264L36,264ZM24,276L24,288L12,288L12,276L24,276ZM12,276L0,276L0,264L12,264L12,276ZM336,336L336,300L300,300L300,336L336,336ZM264,348L264,336L252,336L252,348L264,348ZM228,384L240,384L240,372L228,372L228,384ZM60,168L60,156L72,156L72,168L60,168ZM72,156L72,144L84,144L84,132L96,132L96,156L72,156ZM72,168L96,168L96,180L72,180L72,168ZM72,192L84,192L84,204L72,204L72,192ZM72,228L72,216L84,216L84,228L72,228ZM144,240L144,216L156,216L156,228L168,228L168,252L156,252L156,240L144,240ZM156,216L156,204L168,204L168,216L156,216ZM300,228L300,240L276,240L276,228L300,228ZM336,132L348,132L348,144L336,144L336,132ZM348,144L360,144L360,156L348,156L348,144ZM348,276L360,276L360,288L348,288L348,276ZM132,288L132,300L120,300L120,288L132,288ZM264,192L288,192L288,180L276,180L276,168L252,168L252,180L264,180L264,192ZM240,228L240,204L216,204L216,228L240,228ZM240,96L228,96L228,84L240,84L240,96ZM288,144L276,144L276,156L288,156L288,144ZM216,168L216,180L228,180L228,192L240,192L240,180L228,180L228,168L216,168ZM252,144L252,156L264,156L264,144L252,144ZM168,24L132,24L132,12L108,12L108,36L120,36L120,48L108,48L108,60L96,60L96,0L144,0L144,12L168,12L168,24ZM132,24L132,36L120,36L120,24L132,24ZM96,96L96,72L108,72L108,96L96,96ZM384,372L384,384L396,384L396,396L372,396L372,372L384,372ZM132,36L144,36L144,48L132,48L132,36ZM36,120L24,120L24,108L12,108L12,96L36,96L36,120ZM168,12L168,0L180,0L180,12L168,12ZM324,312L324,324L312,324L312,312L324,312ZM288,252L288,264L276,264L276,252L288,252ZM60,96L60,108L48,108L48,96L60,96ZM60,288L60,300L48,300L48,288L60,288ZM324,372L324,384L312,384L312,372L324,372ZM204,384L204,396L192,396L192,384L204,384Z" style="fill:rgb(255,230,230);"/>
                </g>
                <g id="p1" serif:id="p" transform="matrix(8.080808,0,0,4.545455,3250,0)">
                    <path d="M0,84L0,0L84,0L84,84L0,84ZM72,12L12,12L12,72L72,72L72,12ZM24,60L24,24L60,24L60,60L24,60ZM312,84L312,0L396,0L396,84L312,84ZM384,12L324,12L324,72L384,72L384,12ZM336,60L336,24L372,24L372,60L336,60ZM0,396L0,312L84,312L84,396L0,396ZM72,324L12,324L12,384L72,384L72,324ZM24,372L24,336L60,336L60,372L24,372ZM108,384L156,384L156,396L108,396L108,384ZM108,348L96,348L96,336L108,336L108,348ZM360,348L372,348L372,336L396,336L396,372L384,372L384,360L360,360L360,348ZM12,288L12,300L0,300L0,288L12,288ZM108,360L108,384L96,384L96,360L108,360ZM0,156L0,120L12,120L12,144L36,144L36,156L24,156L24,180L36,180L36,204L24,204L24,264L12,264L12,252L0,252L0,204L12,204L12,180L0,180L0,168L12,168L12,156L0,156ZM36,144L36,120L84,120L84,132L60,132L60,144L36,144ZM84,120L84,108L72,108L72,96L96,96L96,120L84,120ZM96,120L108,120L108,132L96,132L96,120ZM108,132L120,132L120,108L144,108L144,120L132,120L132,144L120,144L120,156L108,156L108,132ZM132,144L156,144L156,204L132,204L132,192L144,192L144,180L132,180L132,192L120,192L120,216L108,216L108,180L120,180L120,156L132,156L132,144ZM156,144L156,108L180,108L180,120L192,120L192,132L168,132L168,144L156,144ZM192,120L192,96L144,96L144,72L132,72L132,84L120,84L120,60L156,60L156,84L168,84L168,72L180,72L180,84L192,84L192,72L204,72L204,84L216,84L216,120L192,120ZM180,72L180,60L192,60L192,72L180,72ZM180,60L168,60L168,24L192,24L192,36L204,36L204,24L216,24L216,12L228,12L228,0L240,0L240,36L228,36L228,60L240,60L240,36L252,36L252,24L264,24L264,12L252,12L252,0L288,0L288,12L300,12L300,24L276,24L276,36L300,36L300,84L288,84L288,72L276,72L276,60L288,60L288,48L276,48L276,60L264,60L264,48L252,48L252,60L264,60L264,72L252,72L252,84L240,84L240,72L228,72L228,84L216,84L216,48L180,48L180,60ZM192,24L192,0L216,0L216,12L204,12L204,24L192,24ZM288,84L288,96L264,96L264,120L252,120L252,108L240,108L240,96L252,96L252,84L264,84L264,72L276,72L276,84L288,84ZM288,96L300,96L300,108L312,108L312,96L324,96L324,108L336,108L336,132L312,132L312,120L288,120L288,96ZM336,108L336,96L396,96L396,180L384,180L384,192L372,192L372,180L336,180L336,168L384,168L384,132L360,132L360,120L372,120L372,108L336,108ZM336,180L336,192L324,192L324,204L336,204L336,216L312,216L312,228L300,228L300,216L288,216L288,204L252,204L252,216L264,216L264,228L252,228L252,240L240,240L240,264L216,264L216,252L228,252L228,240L204,240L204,228L180,228L180,216L204,216L204,204L192,204L192,192L180,192L180,180L168,180L168,168L180,168L180,156L192,156L192,168L204,168L204,156L216,156L216,144L192,144L192,132L216,132L216,120L228,120L228,156L240,156L240,120L252,120L252,132L264,132L264,120L276,120L276,132L312,132L312,144L300,144L300,156L312,156L312,144L336,144L336,156L324,156L324,168L312,168L312,180L300,180L300,192L312,192L312,180L336,180ZM312,228L348,228L348,240L336,240L336,252L312,252L312,228ZM348,240L360,240L360,252L348,252L348,240ZM360,252L384,252L384,240L372,240L372,228L360,228L360,216L372,216L372,204L396,204L396,276L384,276L384,288L372,288L372,276L360,276L360,252ZM384,288L396,288L396,324L360,324L360,312L384,312L384,288ZM360,312L348,312L348,336L360,336L360,348L348,348L348,396L336,396L336,348L288,348L288,324L276,324L276,360L300,360L300,372L288,372L288,396L276,396L276,384L264,384L264,396L216,396L216,372L204,372L204,360L192,360L192,348L180,348L180,360L192,360L192,372L168,372L168,348L156,348L156,372L132,372L132,360L144,360L144,348L132,348L132,336L120,336L120,324L132,324L132,312L144,312L144,336L156,336L156,324L168,324L168,336L192,336L192,324L204,324L204,336L216,336L216,360L228,360L228,348L240,348L240,336L228,336L228,324L264,324L264,312L240,312L240,288L252,288L252,276L288,276L288,288L264,288L264,300L288,300L288,288L300,288L300,252L312,252L312,276L324,276L324,264L348,264L348,276L336,276L336,288L348,288L348,300L360,300L360,312ZM132,360L108,360L108,348L132,348L132,360ZM120,324L96,324L96,300L120,300L120,324ZM96,300L72,300L72,288L84,288L84,276L60,276L60,252L48,252L48,228L36,228L36,204L48,204L48,168L60,168L60,180L72,180L72,192L60,192L60,228L72,228L72,240L84,240L84,228L132,228L132,240L144,240L144,264L156,264L156,288L180,288L180,276L168,276L168,252L180,252L180,240L192,240L192,276L240,276L240,288L228,288L228,300L216,300L216,312L228,312L228,324L204,324L204,312L192,312L192,300L180,300L180,324L168,324L168,300L144,300L144,288L132,288L132,276L120,276L120,264L132,264L132,252L108,252L108,240L96,240L96,252L72,252L72,264L108,264L108,276L96,276L96,300ZM48,252L48,264L36,264L36,252L48,252ZM36,264L36,276L24,276L24,264L36,264ZM24,276L24,288L12,288L12,276L24,276ZM12,276L0,276L0,264L12,264L12,276ZM336,336L336,300L300,300L300,336L336,336ZM264,348L264,336L252,336L252,348L264,348ZM228,384L240,384L240,372L228,372L228,384ZM60,168L60,156L72,156L72,168L60,168ZM72,156L72,144L84,144L84,132L96,132L96,156L72,156ZM72,168L96,168L96,180L72,180L72,168ZM72,192L84,192L84,204L72,204L72,192ZM72,228L72,216L84,216L84,228L72,228ZM144,240L144,216L156,216L156,228L168,228L168,252L156,252L156,240L144,240ZM156,216L156,204L168,204L168,216L156,216ZM300,228L300,240L276,240L276,228L300,228ZM336,132L348,132L348,144L336,144L336,132ZM348,144L360,144L360,156L348,156L348,144ZM348,276L360,276L360,288L348,288L348,276ZM132,288L132,300L120,300L120,288L132,288ZM264,192L288,192L288,180L276,180L276,168L252,168L252,180L264,180L264,192ZM240,228L240,204L216,204L216,228L240,228ZM240,96L228,96L228,84L240,84L240,96ZM288,144L276,144L276,156L288,156L288,144ZM216,168L216,180L228,180L228,192L240,192L240,180L228,180L228,168L216,168ZM252,144L252,156L264,156L264,144L252,144ZM168,24L132,24L132,12L108,12L108,36L120,36L120,48L108,48L108,60L96,60L96,0L144,0L144,12L168,12L168,24ZM132,24L132,36L120,36L120,24L132,24ZM96,96L96,72L108,72L108,96L96,96ZM384,372L384,384L396,384L396,396L372,396L372,372L384,372ZM132,36L144,36L144,48L132,48L132,36ZM36,120L24,120L24,108L12,108L12,96L36,96L36,120ZM168,12L168,0L180,0L180,12L168,12ZM324,312L324,324L312,324L312,312L324,312ZM288,252L288,264L276,264L276,252L288,252ZM60,96L60,108L48,108L48,96L60,96ZM60,288L60,300L48,300L48,288L60,288ZM324,372L324,384L312,384L312,372L324,372ZM204,384L204,396L192,396L192,384L204,384Z"/>
                </g>
            </g>
        </g>
    </g>
</svg>
